<svg width="32" height="32" viewBox="0 0 32 32" fill="none" xmlns="http://www.w3.org/2000/svg">
<g clip-path="url(#clip0_4_2)">
<path d="M24.5 0H7.5C3.35786 0 0 3.35786 0 7.5V24.5C0 28.6421 3.35786 32 7.5 32H24.5C28.6421 32 32 28.6421 32 24.5V7.5C32 3.35786 28.6421 0 24.5 0Z" fill="#F4F2ED"/>
<path d="M5.2045 25.3799H9.18175V15.7207L3.5 11.4595V23.6754C3.5 24.6185 4.26425 25.3799 5.2045 25.3799Z" fill="#4285F4"/>
<path d="M22.8181 25.3799H26.7955C27.7386 25.3799 28.5 24.6156 28.5 23.6754V11.4594L22.8181 15.7207" fill="#34A853"/>
<path d="M22.8181 8.33438V15.7207L28.5 11.4595V9.1865C28.5 7.07862 26.0937 5.87687 24.4091 7.14113" fill="#FBBC04"/>
<path d="M9.18188 15.7207V8.3345L16 13.4479L22.8181 8.33425V15.7206L16 20.8344" fill="#EA4335"/>
<path d="M3.5 9.18662V11.4594L9.18175 15.7207V8.3345L7.59088 7.14125C5.90338 5.877 3.5 7.07875 3.5 9.18662Z" fill="#C5221F"/>
</g>
<defs>
<clipPath id="clip0_4_2">
<rect width="32" height="32" fill="white"/>
</clipPath>
</defs>
</svg>
